<svg width="24" height="24" viewBox="0 0 24 24" fill="none" xmlns="http://www.w3.org/2000/svg">
<path d="M21.6984 14.4191C20.3628 19.7763 14.9369 23.0365 9.57913 21.7006C4.22356 20.365 0.963279 14.9388 2.29952 9.58198C3.6345 4.22423 9.06038 0.963634 14.4166 2.29925C19.774 3.63486 23.034 9.06168 21.6984 14.4191Z" fill="url(#paint0_linear_38_313)"/>
<path d="M16.4062 10.5754C16.6053 9.24477 15.5922 8.52947 14.2069 8.05228L14.6563 6.2498L13.5591 5.97637L13.1216 7.73135C12.8332 7.65948 12.5369 7.59166 12.2425 7.52448L12.6832 5.75793L11.5866 5.4845L11.1369 7.28635C10.8982 7.23198 10.6638 7.17823 10.4363 7.12167L10.4376 7.11604L8.92445 6.73823L8.63258 7.9101C8.63258 7.9101 9.44663 8.09666 9.42945 8.10822C9.87382 8.21916 9.95413 8.51322 9.94069 8.74634L9.42882 10.7998C9.45944 10.8076 9.49913 10.8188 9.54288 10.8363C9.50632 10.8273 9.46726 10.8173 9.42695 10.8076L8.70945 13.6841C8.65508 13.8191 8.51727 14.0216 8.20665 13.9447C8.21758 13.9607 7.40915 13.7457 7.40915 13.7457L6.86447 15.0016L8.29227 15.3575C8.55789 15.4241 8.8182 15.4938 9.07445 15.5594L8.62039 17.3825L9.71632 17.6559L10.166 15.8522C10.4654 15.9335 10.756 16.0085 11.0404 16.0791L10.5922 17.8744L11.6894 18.1478L12.1435 16.3281C14.0144 16.6822 15.4213 16.5394 16.0134 14.8472C16.4906 13.4847 15.9897 12.6988 15.0053 12.1863C15.7222 12.021 16.2622 11.5494 16.4062 10.5754ZM13.8994 14.0907C13.5603 15.4531 11.2663 14.7166 10.5226 14.5319L11.1251 12.1166C11.8688 12.3022 14.2538 12.6697 13.8994 14.0907ZM14.2388 10.5557C13.9294 11.7951 12.02 11.1654 11.4007 11.011L11.9469 8.8204C12.5663 8.97477 14.561 9.2629 14.2388 10.5557Z" fill="white"/>
<defs>
<linearGradient id="paint0_linear_38_313" x1="2" y1="2" x2="2" y2="2002" gradientUnits="userSpaceOnUse">
<stop stop-color="#F9AA4B"/>
<stop offset="1" stop-color="#F7931A"/>
</linearGradient>
</defs>
</svg>
