<svg width="24" height="24" viewBox="0 0 24 24" fill="none" xmlns="http://www.w3.org/2000/svg">
<circle cx="11.6568" cy="12" r="10" fill="white"/>
<path d="M16.5208 16.864C16.5208 16.864 14.3208 14.296 13.5928 13.44C13.5128 13.344 13.4808 13.208 13.5128 13.088C13.5368 13.024 13.5848 12.944 13.6328 12.896L13.9688 12.52L17.7208 16.856H16.5288L16.5208 16.864ZM14.2008 16.864L11.4808 13.688L11.3448 13.512C11.2168 13.36 11.2168 13.136 11.3528 12.984L16.4248 7.072H17.6808L12.5768 12.904C12.4408 13.048 12.4408 13.28 12.5688 13.424L15.5128 16.848H14.2008V16.864ZM11.0328 12.2C9.9848 13.416 7.0328 16.864 7.0328 16.864H5.7208L9.7368 12.208C9.8648 12.056 9.8648 11.84 9.7368 11.688L5.7528 7.072H7.0168L11.0248 11.728C11.1288 11.864 11.1448 12.064 11.0328 12.192V12.2ZM10.9848 14.84L10.5928 15.296L9.2488 16.864H8.0328L10.6088 13.864C10.6088 13.864 10.8968 14.208 10.9928 14.32C11.1208 14.472 11.1208 14.696 10.9848 14.84ZM9.2328 7.08C9.2328 7.08 11.3928 9.664 12.1768 10.464C12.3048 10.592 12.2808 10.752 12.1688 10.888C11.7528 11.376 11.7448 11.384 11.7448 11.384L8.0328 7.08H9.2488H9.2328ZM12.4728 9.104L12.8648 8.648L14.2088 7.08H15.4248L12.8488 10.08C12.8488 10.08 12.5608 9.736 12.4648 9.624C12.3368 9.472 12.3368 9.248 12.4728 9.104ZM11.6568 2C6.1368 2 1.6568 6.48 1.6568 12C1.6568 17.52 6.1368 22 11.6568 22C17.1768 22 21.6568 17.52 21.6568 12C21.6568 6.48 17.1768 2 11.6568 2Z" fill="black"/>
</svg>
