<svg width="24" height="24" viewBox="0 0 24 24" fill="none" xmlns="http://www.w3.org/2000/svg">
<path fill-rule="evenodd" clip-rule="evenodd" d="M5.66181 3.08545L2.01499 10.7456C2.00112 10.7741 1.99672 10.8063 2.00244 10.8374C2.00817 10.8686 2.02372 10.8971 2.04681 10.9188L11.896 20.3567C11.924 20.3836 11.9612 20.3985 12 20.3985C12.0388 20.3985 12.076 20.3836 12.104 20.3567L21.9532 10.9194C21.9763 10.8977 21.9918 10.8692 21.9976 10.838C22.0033 10.8069 21.9989 10.7747 21.985 10.7462L18.3382 3.08604C18.3264 3.06031 18.3075 3.03852 18.2837 3.02327C18.2598 3.00801 18.2321 2.99994 18.2038 3.00001H5.79734C5.76891 2.99966 5.74099 3.00754 5.71695 3.0227C5.6929 3.03786 5.67375 3.05965 5.66181 3.08545Z" fill="#50AF95"/>
<path fill-rule="evenodd" clip-rule="evenodd" d="M13.2654 11.5322C13.1947 11.5375 12.8293 11.5593 12.0144 11.5593C11.3662 11.5593 10.906 11.5399 10.7446 11.5322C8.23973 11.422 6.37006 10.986 6.37006 10.4639C6.37006 9.94183 8.23973 9.50638 10.7446 9.39442V11.0979C10.9084 11.1097 11.3774 11.1374 12.0256 11.1374C12.8034 11.1374 13.1929 11.105 13.263 11.0985V9.3956C15.7626 9.50696 17.6281 9.943 17.6281 10.4639C17.6281 10.9848 15.7632 11.4208 13.263 11.5316L13.2654 11.5322ZM13.2654 9.21942V7.69504H16.7537V5.37048H7.25628V7.69504H10.744V9.21883C7.90916 9.34905 5.77728 9.9106 5.77728 10.5835C5.77728 11.2564 7.90916 11.8174 10.744 11.9482V16.833H13.2648V11.9464C16.0931 11.8162 18.2215 11.2552 18.2215 10.5829C18.2215 9.9106 16.0949 9.34964 13.2648 9.21883L13.2654 9.21942Z" fill="white"/>
</svg>
