<svg width="24" height="24" viewBox="0 0 24 24" fill="none" xmlns="http://www.w3.org/2000/svg">
<path d="M12 22C17.5752 22 22 17.4867 22 12C22 6.42478 17.4867 2 12 2C6.42478 2 2 6.51328 2 12C2 17.4867 6.51327 22 12 22Z" fill="#2C374B"/>
<path fill-rule="evenodd" clip-rule="evenodd" d="M17.4867 8.37162C17.3982 8.28313 13.0619 5.71675 12.531 5.53976C12.354 5.45127 11.9115 5.36277 11.646 5.45127C11.3805 5.53976 6.77876 8.19463 6.60177 8.37162C6.51327 8.46012 6.42478 8.63711 6.33628 8.7256C6.24779 8.9026 6.24779 8.99109 6.24779 12.0884V15.2743L6.86726 15.6283C7.22124 15.8053 7.48673 15.9822 7.48673 15.9822C7.57522 15.9822 11.7345 9.34507 11.7345 9.25658C11.7345 9.16808 10.7611 9.16808 10.4956 9.25658C10.1416 9.34507 9.87611 9.52206 9.69911 9.69906C9.61062 9.78755 9.07965 10.6725 8.37168 11.646C7.75221 12.6194 7.22124 13.5044 7.22124 13.5044C7.22124 13.5044 7.22124 12.6194 7.22124 11.3805V9.16808L7.30974 9.07959C7.48673 8.9026 12 6.33622 12.177 6.33622C12.2655 6.33622 12.354 6.33622 13.4159 6.95569C13.7699 7.13268 14.7434 7.66366 15.5398 8.19463C16.3363 8.63711 17.0442 9.07959 17.1327 9.16808L17.2212 9.25658V13.8583L15.0089 10.407C14.9204 10.23 14.8319 10.053 14.7434 9.96454C14.7434 9.96454 14.6549 10.1415 14.1239 11.0265C14.0354 11.115 13.9469 11.292 13.9469 11.3805L13.8584 11.5575L13.9469 11.646L14.0354 11.7345C14.0354 11.7345 14.0354 11.8229 14.1239 11.8229L14.3009 12.0884C14.3009 12.0884 14.3009 12.1769 14.3894 12.1769C14.4779 12.2654 14.5664 12.4424 14.5664 12.5309C14.5664 12.5309 14.5664 12.5309 14.5664 12.6194L16.4248 15.6283L16.2478 15.7168C16.1593 15.8053 16.0708 15.8053 15.9823 15.8053L13.6814 12.2654L13.5929 12.1769L13.4159 12.5309L12.531 13.9468L14.3009 16.7787C14.0354 16.9557 12.531 18.0176 12.4425 18.0176C12.354 18.0176 10.3186 16.6902 10.4071 16.6017C10.4071 16.6017 11.0265 15.5398 11.7345 14.3008C12.354 13.2389 13.1504 11.9114 13.6814 11.0265C14.3009 9.96454 14.5664 9.43357 14.5664 9.43357C14.5664 9.43357 14.1239 9.43357 13.5929 9.43357H12.708L10.6726 12.7964C9.9646 14.0353 9.25664 15.1858 8.90265 15.8053C8.28319 15.8937 8.1062 16.0707 8.1062 16.0707L8.0177 16.2477L9.61062 17.1327C10.4956 17.6637 11.292 18.1061 11.469 18.1946C11.7345 18.3716 12.177 18.3716 12.354 18.3716C12.531 18.2831 17.1327 15.6283 17.3982 15.4513C17.4867 15.3628 17.5752 15.2743 17.6637 15.0973L17.7522 14.8318V11.9114V8.99109L17.6637 8.8141C17.6637 8.63711 17.4867 8.46012 17.4867 8.37162Z" fill="white"/>
<path d="M17.0442 13.7698L14.3894 9.69904L13.4159 11.292L15.9823 15.4512L17.1327 14.9203L17.0442 13.7698Z" fill="#24A2EE"/>
<path d="M15.8053 15.9823L13.1504 11.9115L12 13.6814L14.1239 17.0442L15.4513 16.5133L15.8053 15.9823Z" fill="#24A2EE"/>
<path fill-rule="evenodd" clip-rule="evenodd" d="M7.13278 9.16813L12 6.33628L16.8673 9.16813V14.8319L12 17.6637L8.37172 15.6283L7.92924 16.4248L11.9115 18.7257C12 18.8142 12.0885 18.8142 12.177 18.7257L17.7523 15.5398C17.8407 15.4513 17.9292 15.3628 17.9292 15.2743V8.90265C17.9292 8.81415 17.8407 8.72566 17.7523 8.63716L12.177 5.45132C12.0885 5.36282 12 5.36282 11.9115 5.45132L6.33632 8.54867C6.24783 8.63716 6.15933 8.72566 6.15933 8.81415V15.1858C6.15933 15.2743 6.24783 15.3628 6.33632 15.4513L7.48677 16.0708L8.01774 15.2743L7.22128 14.8319V9.16813H7.13278Z" fill="#98BCDC"/>
<path d="M14.1239 9.16809H12.2655L7.92919 16.2477L9.43361 17.1327L14.1239 9.16809Z" fill="white"/>
<path d="M9.43367 9.87603C9.87615 9.16807 11.1151 9.16807 11.6461 9.25656L7.39827 16.0707C7.22128 15.9822 6.8673 15.8052 6.60181 15.6282C6.24783 15.4513 6.15933 15.4513 6.15933 15.1858V14.8318C7.13278 13.4159 8.99119 10.584 9.43367 9.87603Z" fill="white"/>
</svg>
