<svg width="24" height="24" viewBox="0 0 24 24" fill="none" xmlns="http://www.w3.org/2000/svg">
<path fill-rule="evenodd" clip-rule="evenodd" d="M12 2C6.48 2 2 6.48 2 12C2 17.52 6.48 22 12 22C17.52 22 22 17.52 22 12C22 6.48 17.52 2 12 2Z" fill="#814625"/>
<path fill-rule="evenodd" clip-rule="evenodd" d="M14.9254 14.1371C15.3862 14.2986 15.7272 14.7751 15.7609 15.3482L15.1988 15.3439L15.2007 15.1003C15.2021 14.9114 15.0891 14.7466 14.9213 14.6627L14.9205 14.7764C14.9192 14.9432 14.7721 15.0779 14.5927 15.0765L14.5641 15.0763C14.3847 15.0749 14.2396 14.938 14.2409 14.7712L14.2417 14.6575C14.0728 14.7388 13.9572 14.9033 13.9558 15.0908L13.9539 15.3344L13.3918 15.3301C13.4343 14.7576 13.7825 14.2864 14.2458 14.1319L14.2518 13.3348C13.7625 13.1642 13.4092 12.639 13.414 12.019C13.4187 11.3989 13.7815 10.8792 14.2719 10.7161L14.278 9.91894C13.8171 9.75744 13.4762 9.28094 13.4424 8.70791L14.0045 8.71221L14.0027 8.95578C14.0012 9.14472 14.1143 9.30947 14.282 9.3934L14.2828 9.27973C14.2841 9.11296 14.4313 8.97823 14.6107 8.9796L14.6393 8.97982C14.8187 8.98119 14.9637 9.11816 14.9624 9.28492L14.9616 9.3986C15.1306 9.31724 15.2461 9.15276 15.2476 8.96529L15.2494 8.72172L15.8115 8.72602C15.7691 9.29846 15.4208 9.7697 14.9576 9.92414L14.9515 10.7213C15.4408 10.8918 15.7941 11.4186 15.7894 12.0371C15.7847 12.6557 15.4234 13.1755 14.9314 13.34L14.9254 14.1371ZM13.9765 12.3716C13.9751 12.5606 14.0898 12.7254 14.2559 12.8093L14.2567 12.6957C14.258 12.5288 14.4052 12.3942 14.5846 12.3955L14.6132 12.3957C14.7926 12.3971 14.9376 12.534 14.9363 12.7009L14.9355 12.8145C15.1045 12.7331 15.22 12.5686 15.2214 12.3812L15.2268 11.683C15.2282 11.494 15.1152 11.3293 14.9475 11.2453L14.9466 11.359C14.9453 11.5258 14.7982 11.6605 14.6188 11.6591L14.5902 11.6589C14.4108 11.6575 14.2657 11.5206 14.267 11.3538L14.2679 11.2401C14.0989 11.3215 13.9833 11.486 13.9819 11.6734L13.9765 12.3716Z" fill="white"/>
<path fill-rule="evenodd" clip-rule="evenodd" d="M18.147 12.4807C18.6364 12.6527 18.9897 13.178 18.985 13.7965C18.9803 14.415 18.619 14.9349 18.127 15.0994L18.125 15.3666L17.447 15.3614L17.449 15.0942C16.9596 14.9237 16.6064 14.3969 16.6111 13.7784C16.6159 13.1599 16.9771 12.64 17.469 12.4755L17.4755 11.6267C16.9861 11.4561 16.6329 10.9293 16.6376 10.3108C16.6424 9.69231 17.0036 9.17245 17.4955 9.0079L17.4976 8.74073L18.1756 8.74592L18.1736 9.01308C18.6629 9.18366 19.0162 9.71046 19.0115 10.329C19.0068 10.9475 18.6455 11.4673 18.1535 11.6319L18.147 12.4807ZM18.417 14.1421L18.4186 14.1421L18.4239 13.4438C18.4254 13.2549 18.3123 13.0902 18.1446 13.0062L18.1442 13.0667C18.1429 13.2335 17.9958 13.3682 17.8164 13.3668L17.7878 13.3666C17.6084 13.3652 17.4633 13.2283 17.4646 13.0615L17.465 13.001C17.2961 13.0824 17.1805 13.2468 17.179 13.4343L17.1737 14.1326C17.1723 14.3215 17.2854 14.4862 17.453 14.5702L17.4543 14.4034C17.4556 14.2366 17.6027 14.1019 17.7821 14.1032L17.8091 14.1034C17.9886 14.1048 18.1336 14.2418 18.1323 14.4085L18.131 14.5754C18.3 14.494 18.4156 14.3295 18.417 14.1421ZM17.1986 10.6635C17.1972 10.8525 17.3119 11.0172 17.4764 11.1011L17.4772 10.9875C17.4785 10.8206 17.6257 10.686 17.8051 10.6873L17.8337 10.6875C18.0131 10.6889 18.1581 10.8258 18.1568 10.9927L18.156 11.1063C18.325 11.025 18.4405 10.8605 18.4419 10.673L18.4473 9.97476C18.4487 9.78582 18.3357 9.62107 18.168 9.53714L18.1671 9.65081C18.1658 9.81763 18.0187 9.95231 17.8393 9.95094L17.8123 9.95073C17.6329 9.94936 17.4878 9.81245 17.4891 9.64563L17.49 9.53195C17.321 9.61331 17.2054 9.77779 17.204 9.96526L17.1986 10.6635Z" fill="white"/>
<path fill-rule="evenodd" clip-rule="evenodd" d="M11.9172 11.3248C12.0175 11.9102 12.7354 12.0973 12.7229 13.1144C12.715 14.1521 11.9576 14.9641 10.4238 14.9524L9.795 14.9476C9.79338 14.952 9.53195 15.2911 9 15.287C8.73316 15.2938 8.61736 15.2811 8.61736 15.2811C8.11574 15.2581 7.87525 14.9344 7.8721 14.9314L7.24326 14.9266C5.70941 14.9149 4.96459 14.0914 4.97252 13.0536C4.98031 12.0351 5.701 11.8605 5.81023 11.2767C5.81683 11.2443 5.82667 11.2118 5.83798 11.1795C5.83326 11.1736 4.79098 9.79853 5.77239 8.9616C6.75381 8.12467 7.88388 9.2346 7.89019 9.24061C8.07 9.1903 8.25125 9.15918 8.43078 9.14581C8.43078 9.14581 8.95205 9.09221 9.32321 9.15263L9.32479 9.15264C9.50568 9.16877 9.68803 9.20267 9.86863 9.25721C9.87502 9.25135 11.022 8.15878 11.9905 9.01061C12.9605 9.86246 11.8958 11.2199 11.891 11.2272C11.9034 11.2583 11.9111 11.2909 11.9172 11.3248Z" fill="white"/>
</svg>
