<?xml version="1.0" encoding="UTF-8" standalone="no"?>
<!DOCTYPE svg PUBLIC "-//W3C//DTD SVG 1.1//EN" "http://www.w3.org/Graphics/SVG/1.1/DTD/svg11.dtd">
<svg width="100%" height="100%" viewBox="0 0 36 32" version="1.1" xmlns="http://www.w3.org/2000/svg" xmlns:xlink="http://www.w3.org/1999/xlink" xml:space="preserve" xmlns:serif="http://www.serif.com/" style="fill-rule:evenodd;clip-rule:evenodd;stroke-linejoin:round;stroke-miterlimit:2;">
    <g transform="matrix(8.04439,0,0,3.67258,-72.4448,-21.9844)">
        <path d="M9.123,14.492L9.006,14.492L9.006,14.176L9.061,14.246L10.118,12.909L10.118,10.238L9.061,8.901L9.006,8.971L9.006,5.986L9.123,5.986L9.123,8.658L10.18,9.994L11.236,8.658L11.236,5.986L11.361,5.986L11.361,8.658L12.417,9.994L13.468,8.665L13.468,8.987L12.48,10.238L12.48,12.909L13.468,14.16L13.468,14.475L12.417,13.146L11.361,14.482L11.361,14.492L11.236,14.492L11.236,14.482L10.18,13.146L9.123,14.482L9.123,14.492ZM10.242,10.238L10.242,12.909L11.299,14.245L12.355,12.909L12.355,10.238L11.299,8.901L10.242,10.238Z"/>
    </g>
</svg>
