<?xml version="1.0" encoding="UTF-8" standalone="no"?>
<!DOCTYPE svg PUBLIC "-//W3C//DTD SVG 1.1//EN" "http://www.w3.org/Graphics/SVG/1.1/DTD/svg11.dtd">
<svg width="100%" height="100%" viewBox="0 0 744 744" version="1.1" xmlns="http://www.w3.org/2000/svg" xmlns:xlink="http://www.w3.org/1999/xlink" xml:space="preserve" xmlns:serif="http://www.serif.com/" style="fill-rule:evenodd;clip-rule:evenodd;stroke-linejoin:round;stroke-miterlimit:2;">
    <g id="RING-2-COLOR">
        <g transform="matrix(1,0,0,1,-132.922,-171.326)">
            <path d="M217.506,778.81C164.666,714.626 132.922,632.436 132.922,542.89C132.922,337.818 299.414,171.326 504.486,171.326C568.126,171.326 628.05,187.36 680.436,215.605L357.929,215.605L357.923,215.628L217.506,778.81ZM202.917,671.982L221.594,597.071C218.248,579.521 216.496,561.409 216.496,542.89C216.496,474.602 240.316,411.832 280.093,362.445L298.782,287.489C224.223,347.633 176.496,439.732 176.496,542.89C176.496,588.714 185.914,632.355 202.917,671.982Z" style="fill:rgb(189,97,255);"/>
        </g>
        <g transform="matrix(1,0,0,1,-132.922,-171.326)">
            <path d="M768.882,281.93C835.133,349.046 876.05,441.227 876.05,542.89C876.05,747.962 709.558,914.455 504.486,914.455C422.16,914.455 346.052,887.622 284.437,842.234C320.749,817.961 349.433,780.679 359.848,738.906C359.848,738.906 460.328,333.519 460.929,326.528L668.881,326.528C705.238,326.528 741.904,308.995 768.882,281.93ZM761.182,338.802C749.418,346.114 736.962,352.148 724.127,356.698C766.751,406.919 792.476,471.924 792.476,542.89C792.476,701.836 663.432,830.88 504.486,830.88C458.724,830.88 415.44,820.183 377.001,801.156C370.202,812.765 362.284,823.791 353.443,834.057C398.66,857.581 450.032,870.88 504.486,870.88C685.508,870.88 832.476,723.913 832.476,542.89C832.476,465.769 805.801,394.83 761.182,338.802ZM417.386,592.655L639.186,592.655L639.192,592.632C654.452,531.424 617.149,481.732 555.942,481.732C494.735,481.732 432.652,531.424 417.392,592.632L417.386,592.655Z" style="fill:rgb(242,61,255);"/>
        </g>
    </g>
</svg>
